# xmcd
#
# Track frame offsets: 
#        180
#        22245
#        46947
#        67951
#        88754
#        106402
#        128606
#        151647
#        174018
#        196141
#        222488
#        246008
#        278125
#        307135
#        314160
#        324463
#
# Disc length: 4433 seconds
#
# Revision: 2
# Processed by: cddbd v1.4PL0 Copyright (c) Steve Scherf et al.
# Submitted via: ExactAudioCopy v0.95a3
#
DISCID=dd114f10
DTITLE=Various Artist - Se Botó La Salsa Serie 32
DYEAR=1997
DGENRE=Salsa
TTITLE0=Sin Sentimiento - Grupo Niche
TTITLE1=Medias Negras - Willy Chirino
TTITLE2=Ese Hombre - India
TTITLE3=Disculpame Señora - Jose Alberto "El Canario"
TTITLE4=Voy A Escarbar Tu Cuerpo - Lalo Rodrigues
TTITLE5=Lluvia - Eddie Santiago
TTITLE6=Como Lo Haces Conmigo - David Pabon
TTITLE7=Patron De Amor Y Guerra - Amilcar Boscan
TTITLE8=No Se Como Te Quiero - Ray Sepulveda
TTITLE9=Que Lastima - Louie Ramirez and Ray de La Paz
TTITLE10=Esa Mujer - Tony Vega
TTITLE11=Yo Soy - Cheo and Gilberto
TTITLE12=La Rueda - La Solucion - Medley Andy Montañez
TTITLE13=Don Goyo - Andy Montañez
TTITLE14=El Barbero Loco - Santurce - Andy Montañez
TTITLE15=Un Verano En Nueva York - Andy Montañez
EXTD=
EXTT0=
EXTT1=
EXTT2=
EXTT3=
EXTT4=
EXTT5=
EXTT6=
EXTT7=
EXTT8=
EXTT9=
EXTT10=
EXTT11=
EXTT12=
EXTT13=
EXTT14=
EXTT15=
PLAYORDER=
